<!-- Generated by IcoMoon.io -->
<svg version="1.1" xmlns="http://www.w3.org/2000/svg" width="32" height="32" viewBox="0 0 32 32">
<path fill="#fff" d="M5 16c0-0.001 0-0.001 0-0.002 0-6.075 4.925-11 11-11 2.025 0 3.922 0.547 5.552 1.502l-0.052-0.028c0.142 0.082 0.313 0.131 0.494 0.131 0.552 0 1-0.448 1-1 0-0.366-0.196-0.686-0.49-0.86l-0.005-0.003c-1.865-1.095-4.107-1.742-6.5-1.742-7.18 0-13 5.82-13 13s5.82 13 13 13c7.179 0 12.999-5.819 13-12.998v-0c0-0.552-0.448-1-1-1s-1 0.448-1 1v0c0 6.075-4.925 11-11 11s-11-4.925-11-11v0z"></path>
<path fill="#fff" d="M30.708 6.708c0.182-0.181 0.294-0.432 0.294-0.708 0-0.415-0.253-0.771-0.613-0.922l-0.007-0.002c-0.113-0.048-0.245-0.076-0.383-0.076-0.277 0-0.527 0.112-0.708 0.293l-13.292 13.295-5.292-5.293c-0.181-0.181-0.431-0.293-0.708-0.293-0.553 0-1.001 0.448-1.001 1.001 0 0.277 0.112 0.527 0.293 0.708l6 6c0.181 0.181 0.431 0.293 0.708 0.293s0.527-0.112 0.708-0.293l14-14z"></path>
</svg>
